Coordinates
version=1
nRows=8
nColumns=33
inDegrees=yes

Units are S.I. units (second, meters, Newtons, ...)
Angles are in degrees.

endheader
time	ground_thorax_rot_x	ground_thorax_rot_y	ground_thorax_rot_z	ground_thorax_tx	ground_thorax_ty	ground_thorax_tz	clav_prot_r	clav_elev_r	scapula_abduction_r	scapula_elevation_r	scapula_upward_rot_r	scapula_winging_r	shoulder_elv_r	plane_of_elev_r	axial_rot_r	elbow_flexion_r	pro_sup_r	wrist_flex_r	wrist_dev_r	clav_prot_l	clav_elev_l	scapula_abduction_l	scapula_elevation_l	scapula_upward_rot_l	scapula_winging_l	shoulder_elv_l	plane_of_elev_l	axial_rot_l	elbow_flexion_l	pro_sup_l	wrist_flex_l	wrist_dev_l
      5.69000000	    -30.51607413	    -26.60844758	     38.82973625	    -64.81232078	    781.57237469	      4.06013920	      9.81967932	    -45.00000000	     39.83675256	    -45.00000000	    -45.00000000	  -3335.58474700	  -2811.56001560	     30.52397427	     55.75162353	   1810.44669091	     30.65505557	     17.50424716	     12.99000835	     15.64384237	     38.35856647	    -35.77828964	    -45.00000000	    -45.00000000	   1158.25200825	  -3173.69488242	     25.52091691	     -8.72232748	    723.78383778	     32.46590689	     12.26563138	    -20.12990492
      5.70000000	    -31.11131661	    -25.93587629	     38.05759894	    -67.42717479	    783.19046828	      3.88896942	      9.39513006	    -45.00000000	     39.67593505	    -45.00000000	    -45.00000000	  -3335.50372610	  -2811.04439440	     30.79475980	     54.52831203	   1810.65310325	     30.52359409	     17.78809620	     12.54477983	     15.90505312	     38.86131448	    -36.35101498	    -45.00000000	    -45.00000000	   1158.71191370	  -3173.51920998	     25.68944183	     -9.16899882	    724.31204018	     32.32467414	     12.16287103	    -20.33662243
      5.71000000	    -31.42416184	    -25.60569816	     37.68206854	    -70.37393148	    784.97126352	      3.71742256	      9.47379778	    -45.00000000	     39.84519546	    -45.00000000	    -45.00000000	  -3335.68976376	  -2810.65600727	     31.03668972	     53.61063591	   1810.96339693	     30.68332303	     17.90396643	     12.24708121	     15.96861539	     38.81030887	    -36.59862848	    -45.00000000	    -45.00000000	   1159.10469558	  -3173.21850776	     25.69876397	     -8.95641355	    724.71876461	     31.95870710	     11.92752735	    -20.44256094
      5.72000000	    -31.75309844	    -25.22140255	     37.25803291	    -73.63816653	    786.91559867	      3.55599148	      9.51042780	    -45.00000000	     39.95948276	    -45.00000000	    -45.00000000	  -3335.87435279	  -2810.20946215	     31.32765186	     52.61713186	   1811.19559140	     31.03406109	     18.04607799	     11.88974201	     16.08411142	     38.72089077	    -36.84321033	    -45.00000000	    -45.00000000	   1159.49614199	  -3172.87469902	     25.81366265	     -8.50806571	    725.03863608	     31.55783389	     11.74409759	    -20.53663506
      5.73000000	    -32.14971027	    -24.72952098	     36.72723453	    -77.21252554	    789.02296050	      3.41360331	      9.58738951	    -45.00000000	     40.08954864	    -45.00000000	    -45.00000000	  -3336.14595960	  -2809.76056498	     31.68700370	     51.59517894	   1811.43592587	     31.58288858	     18.20519091	     11.48104961	     16.15525672	     38.50310982	    -37.11808059	    -45.00000000	    -45.00000000	   1159.93694115	  -3172.53343385	     26.06411611	     -8.02814141	    725.34849221	     31.15760817	     11.60420303	    -20.64536782
      5.74000000	    -32.74164241	    -24.05588760	     35.80718960	    -81.08162359	    791.28103806	      3.29363916	      9.57379783	    -45.00000000	     40.07517978	    -45.00000000	    -45.00000000	  -3336.24449290	  -2809.19872483	     32.11564933	     50.34060421	   1811.69322429	     32.12138127	     18.34872906	     10.95835338	     16.21074503	     38.81016164	    -37.58811384	    -45.00000000	    -45.00000000	   1160.44590214	  -3172.17879040	     26.21121392	     -7.86123375	    725.80914219	     30.80498232	     11.36347525	    -20.77393980
      5.75000000	    -33.21750241	    -23.49067330	     35.07467611	    -85.23364579	    793.67301704	      3.19592315	      9.57382635	    -45.00000000	     40.23120858	    -45.00000000	    -45.00000000	  -3336.46820206	  -2808.66668063	     32.42653872	     49.27375262	   1812.05132031	     32.83025824	     18.55202411	     10.52352412	     16.31616406	     38.84795952	    -37.95424075	    -45.00000000	    -45.00000000	   1160.87717182	  -3171.74594480	     26.26865941	     -7.53882648	    726.17546200	     30.33587119	     11.13662419	    -20.85747224
      5.76000000	    -33.61293351	    -22.98451289	     34.45800441	    -89.65070845	    796.17691682	      3.11973141	      9.62397498	    -45.00000000	     40.34253179	    -45.00000000	    -45.00000000	  -3336.80609499	  -2808.17016997	     32.81564399	     48.24164328	   1812.29286508	     33.72162742	     18.74090842	     10.06599091	     16.41296576	     38.50784448	    -38.19622250	    -45.00000000	    -45.00000000	   1161.32471973	  -3171.32714077	     26.41011150	     -7.26022918	    726.41911570	     29.73947043	     10.98760323	    -20.92365495
